<?xml version="1.0" encoding="UTF-8"?>
<svg id="Layer_1" data-name="Layer 1" xmlns="http://www.w3.org/2000/svg" version="1.1" viewBox="0 0 548.02 87.5">
  <defs>
    <style>
      .cls-1 {
        fill: #000;
      }

      .cls-1, .cls-2 {
        stroke-width: 0px;
      }

      .cls-2 {
        fill: #fc372d;
      }
    </style>
  </defs>
  <path class="cls-1" d="M24.52,69.13c-4.89,0-9.13-.77-12.72-2.31-3.59-1.54-6.39-3.74-8.42-6.61-2.02-2.87-3.15-6.28-3.38-10.24h9.93c.2,2.37.97,4.34,2.31,5.91,1.33,1.57,3.07,2.73,5.21,3.49,2.14.76,4.48,1.14,7.03,1.14,2.78,0,5.27-.44,7.47-1.32s3.92-2.12,5.16-3.71c1.25-1.6,1.87-3.46,1.87-5.6,0-1.93-.55-3.52-1.65-4.75s-2.59-2.25-4.46-3.05c-1.88-.81-3.98-1.52-6.33-2.13l-7.69-2.11c-5.27-1.41-9.43-3.51-12.48-6.31-3.05-2.8-4.57-6.47-4.57-11.01,0-3.78,1.02-7.08,3.05-9.89,2.04-2.81,4.8-5,8.31-6.57,3.5-1.57,7.43-2.35,11.8-2.35s8.37.78,11.76,2.35c3.38,1.57,6.06,3.71,8.04,6.42,1.98,2.71,3.01,5.81,3.1,9.29h-9.58c-.35-3.02-1.75-5.36-4.2-7.03-2.45-1.67-5.56-2.5-9.34-2.5-2.64,0-4.94.42-6.92,1.25s-3.5,1.98-4.57,3.45c-1.07,1.47-1.6,3.15-1.6,5.05,0,2.05.64,3.72,1.91,5.01,1.27,1.29,2.83,2.31,4.66,3.05,1.83.75,3.6,1.36,5.3,1.82l6.37,1.71c2.08.53,4.22,1.23,6.42,2.11s4.24,2.03,6.13,3.45c1.89,1.42,3.41,3.18,4.57,5.27,1.16,2.09,1.74,4.62,1.74,7.58,0,3.66-.95,6.94-2.86,9.82-1.9,2.89-4.66,5.16-8.26,6.81s-7.97,2.48-13.1,2.48Z"/>
  <path class="cls-1" d="M60.78,11.38c-1.67,0-3.09-.56-4.26-1.67-1.17-1.11-1.76-2.45-1.76-4s.59-2.93,1.76-4.04c1.17-1.11,2.59-1.67,4.26-1.67s3.05.56,4.24,1.67c1.19,1.11,1.78,2.46,1.78,4.04s-.59,2.89-1.78,4c-1.19,1.11-2.6,1.67-4.24,1.67ZM55.99,68.07V18.94h9.49v49.13h-9.49Z"/>
  <path class="cls-1" d="M74.62,68.07V18.94h9.1v8.09h.66c1.03-2.72,2.7-4.86,5.03-6.39s5.1-2.31,8.33-2.31,6.03.77,8.24,2.31c2.21,1.54,3.86,3.67,4.94,6.39h.53c1.17-2.67,3.03-4.78,5.58-6.35,2.55-1.57,5.58-2.35,9.1-2.35,4.45,0,8.1,1.4,10.94,4.2,2.84,2.8,4.26,7.01,4.26,12.63v32.92h-9.58v-32.04c0-3.34-.91-5.75-2.72-7.23-1.82-1.48-3.98-2.22-6.5-2.22-3.11,0-5.52.96-7.23,2.88-1.71,1.92-2.57,4.34-2.57,7.27v31.33h-9.58v-32.65c0-2.67-.82-4.8-2.46-6.42-1.64-1.61-3.79-2.42-6.46-2.42-1.82,0-3.49.48-5.03,1.43-1.54.95-2.77,2.27-3.69,3.96-.92,1.69-1.38,3.63-1.38,5.82v30.28h-9.49Z"/>
  <path class="cls-1" d="M171.08,69.08c-4.6,0-8.62-1.05-12.06-3.16-3.44-2.11-6.11-5.07-8-8.88-1.89-3.81-2.83-8.23-2.83-13.27s.94-9.56,2.83-13.38,4.56-6.79,8-8.9c3.44-2.11,7.46-3.16,12.06-3.16s8.66,1.05,12.08,3.16,6.09,5.08,8,8.9c1.9,3.82,2.86,8.28,2.86,13.38s-.95,9.46-2.86,13.27c-1.9,3.81-4.57,6.77-8,8.88s-7.46,3.16-12.08,3.16ZM171.08,61.04c3.02,0,5.51-.79,7.47-2.37,1.96-1.58,3.42-3.68,4.37-6.31.95-2.62,1.43-5.49,1.43-8.59s-.48-6.06-1.43-8.7c-.95-2.64-2.41-4.75-4.37-6.33-1.96-1.58-4.45-2.37-7.47-2.37s-5.46.79-7.4,2.37c-1.95,1.58-3.41,3.69-4.37,6.33s-1.45,5.54-1.45,8.7.48,5.97,1.45,8.59c.97,2.62,2.42,4.72,4.37,6.31,1.95,1.58,4.42,2.37,7.4,2.37Z"/>
  <path class="cls-1" d="M210.37,38.94v29.14h-9.49V18.94h9.23v8.09h.66c1.11-2.67,2.86-4.78,5.23-6.35,2.37-1.57,5.42-2.35,9.14-2.35,3.34,0,6.26.7,8.77,2.09,2.5,1.39,4.45,3.46,5.84,6.22,1.39,2.75,2.09,6.17,2.09,10.24v31.2h-9.49v-30.06c0-3.54-.94-6.33-2.81-8.37-1.88-2.04-4.42-3.05-7.65-3.05-2.2,0-4.17.49-5.91,1.47-1.74.98-3.11,2.38-4.11,4.2-1,1.82-1.49,4.04-1.49,6.68Z"/>
  <path class="cls-1" d="M272.11,69.08c-4.81,0-8.96-1.04-12.48-3.12-3.52-2.08-6.22-5.02-8.11-8.81-1.89-3.79-2.83-8.22-2.83-13.29s.93-9.48,2.79-13.32c1.86-3.84,4.48-6.83,7.87-8.99s7.36-3.23,11.93-3.23c2.78,0,5.48.45,8.09,1.36,2.61.91,4.95,2.34,7.03,4.31,2.08,1.96,3.73,4.51,4.94,7.65,1.22,3.14,1.82,6.91,1.82,11.34v3.43h-39.07v-7.16h34.15l-4.44,2.37c0-3.02-.47-5.68-1.41-8-.94-2.31-2.34-4.12-4.2-5.43-1.86-1.3-4.17-1.96-6.92-1.96s-5.1.66-7.05,1.98c-1.95,1.32-3.44,3.06-4.46,5.23-1.03,2.17-1.54,4.54-1.54,7.12v4.88c0,3.37.59,6.23,1.76,8.57,1.17,2.34,2.81,4.13,4.9,5.36,2.09,1.23,4.53,1.85,7.32,1.85,1.82,0,3.46-.26,4.94-.79,1.48-.53,2.76-1.32,3.85-2.37,1.08-1.05,1.9-2.36,2.46-3.91l9.05,1.71c-.73,2.64-2.02,4.95-3.87,6.94-1.85,1.99-4.17,3.54-6.97,4.64-2.8,1.1-5.98,1.65-9.56,1.65Z"/>
  <path class="cls-2" d="M306.96,68.69c-1.79,0-3.3-.62-4.55-1.85s-1.87-2.74-1.87-4.53.62-3.3,1.87-4.53,2.76-1.85,4.55-1.85,3.3.62,4.55,1.85c1.24,1.23,1.87,2.74,1.87,4.53s-.62,3.3-1.87,4.53c-1.25,1.23-2.76,1.85-4.55,1.85Z"/>
  <path class="cls-1" d="M332.43,68.07L314.32,2.59h10.37l12.74,50.71h.62l13.27-50.71h10.28l13.23,50.76h.66l12.7-50.76h10.46l-18.24,65.48h-9.93l-13.75-49h-.53l-13.75,49h-10.02Z"/>
  <path class="cls-1" d="M408.15,11.38c-1.67,0-3.09-.56-4.26-1.67-1.17-1.11-1.76-2.45-1.76-4s.59-2.93,1.76-4.04c1.17-1.11,2.59-1.67,4.26-1.67s3.05.56,4.24,1.67c1.19,1.11,1.78,2.46,1.78,4.04s-.59,2.89-1.78,4c-1.19,1.11-2.6,1.67-4.24,1.67ZM403.36,68.07V18.94h9.49v49.13h-9.49Z"/>
  <path class="cls-1" d="M442.47,87.5c-5.86,0-10.47-1.1-13.84-3.3s-5.7-4.81-6.99-7.82l8.17-3.38c.59.94,1.37,1.93,2.35,2.99.98,1.05,2.31,1.95,3.98,2.68,1.67.73,3.82,1.1,6.46,1.1,3.6,0,6.59-.87,8.96-2.61,2.37-1.74,3.56-4.53,3.56-8.37v-9.62h-.66c-.53,1.03-1.33,2.18-2.42,3.45s-2.56,2.38-4.44,3.32c-1.88.94-4.32,1.41-7.34,1.41-3.87,0-7.35-.92-10.44-2.75-3.09-1.83-5.55-4.53-7.38-8.09s-2.75-7.95-2.75-13.16.9-9.69,2.7-13.43c1.8-3.74,4.25-6.6,7.36-8.59,3.11-1.99,6.64-2.99,10.59-2.99,3.05,0,5.52.51,7.4,1.52,1.89,1.01,3.36,2.19,4.42,3.54,1.05,1.35,1.88,2.53,2.46,3.56h.7v-8h9.27v50.23c0,4.22-.97,7.68-2.92,10.37-1.95,2.7-4.59,4.69-7.93,6-3.34,1.3-7.1,1.96-11.29,1.96ZM442.38,59.37c4.13,0,7.3-1.43,9.51-4.28s3.32-6.82,3.32-11.89c0-3.31-.48-6.22-1.45-8.72s-2.4-4.47-4.31-5.89c-1.9-1.42-4.26-2.13-7.08-2.13s-5.27.74-7.19,2.22c-1.92,1.48-3.36,3.49-4.33,6.02-.97,2.53-1.45,5.37-1.45,8.5s.48,6.01,1.45,8.46c.97,2.45,2.42,4.34,4.37,5.69,1.95,1.35,4.33,2.02,7.14,2.02Z"/>
  <path class="cls-1" d="M483.21,38.94v29.14h-9.49V2.59h9.36v24.43h.66c1.14-2.67,2.89-4.78,5.25-6.35,2.36-1.57,5.44-2.35,9.25-2.35,3.37,0,6.31.69,8.83,2.07,2.52,1.38,4.49,3.44,5.91,6.2,1.42,2.75,2.13,6.18,2.13,10.28v31.2h-9.58v-30.06c0-3.63-.93-6.44-2.79-8.44-1.86-1.99-4.45-2.99-7.76-2.99-2.29,0-4.31.49-6.06,1.47-1.76.98-3.15,2.38-4.17,4.2-1.03,1.82-1.54,4.04-1.54,6.68Z"/>
  <path class="cls-1" d="M547.06,18.94v7.69h-26.81v-7.69h26.81ZM527.41,7.25h9.54v46.41c0,2.26.47,3.9,1.41,4.94.94,1.04,2.45,1.56,4.53,1.56.5,0,1.03-.03,1.6-.09.57-.06,1.15-.15,1.74-.26l1.8,7.91c-.97.32-2.02.57-3.16.75s-2.29.26-3.43.26c-4.25,0-7.65-1.19-10.2-3.58-2.55-2.39-3.82-5.57-3.82-9.56V7.25Z"/>
</svg>