<?xml version="1.0" encoding="UTF-8"?>
<svg id="Layer_1" data-name="Layer 1" xmlns="http://www.w3.org/2000/svg" version="1.1" viewBox="0 0 64 64">
  <defs>
    <style>
      .cls-1 {
        fill: #ff5c00;
      }

      .cls-1, .cls-2 {
        stroke-width: 0px;
      }

      .cls-2 {
        fill: #000;
      }
    </style>
  </defs>
  <circle class="cls-1" cx="32" cy="32" r="31"/>
  <g>
    <path class="cls-2" d="M17.87,40.59c-1.3,0-2.43-.2-3.39-.61s-1.7-.99-2.24-1.77-.83-1.71-.87-2.82h2.98c.04.58.22,1.07.54,1.45s.73.67,1.24.87,1.08.29,1.71.29,1.24-.1,1.74-.3.89-.48,1.18-.84.43-.78.43-1.26c0-.43-.13-.79-.38-1.07s-.61-.52-1.05-.71-.98-.37-1.58-.52l-1.89-.49c-1.38-.35-2.46-.89-3.25-1.61s-1.19-1.68-1.19-2.89c0-.99.27-1.85.8-2.58s1.26-1.31,2.18-1.72,1.97-.62,3.13-.62,2.23.21,3.13.62,1.6.98,2.11,1.7.77,1.56.8,2.5h-2.93c-.07-.72-.39-1.27-.95-1.67s-1.29-.59-2.19-.59c-.63,0-1.17.09-1.62.28s-.8.44-1.04.77-.36.7-.36,1.12c0,.46.14.84.42,1.14s.64.53,1.08.71.88.33,1.34.45l1.56.39c.63.15,1.23.35,1.82.6s1.11.56,1.58.94.84.84,1.11,1.37.41,1.17.41,1.89c0,.97-.25,1.83-.75,2.57s-1.22,1.32-2.16,1.74-2.08.63-3.41.63Z"/>
    <path class="cls-2" d="M28.04,40.53c-.51,0-.94-.17-1.28-.52s-.52-.77-.52-1.27.17-.93.52-1.27.78-.52,1.28-.52.94.17,1.28.52.52.77.52,1.27-.17.93-.52,1.27-.78.52-1.28.52Z"/>
    <path class="cls-2" d="M35.11,40.34l-4.71-16.71h3.25l3.02,12.28h.15l3.22-12.28h2.97l3.2,12.29h.17l2.99-12.29h3.27l-4.72,16.71h-2.99l-3.34-11.71h-.13l-3.33,11.71h-3Z"/>
  </g>
</svg>